<svg xmlns="http://www.w3.org/2000/svg" viewBox="0 0 147.08 146.9"><defs><style>.cls-1{fill:#f1f5f9;}.cls-2{fill:#fff;}.cls-3{fill:#000356;}.cls-4{fill:#9798f8;}</style></defs><g id="Lager_2" data-name="Lager 2"><g id="Lager_1-2" data-name="Lager 1"><circle class="cls-1" cx="73.4" cy="73" r="73"/><circle class="cls-2" cx="72.2" cy="73.61" r="57.9"/><path class="cls-3" d="M44.63,80.82l9.58-17.47H43.72V60.44H57.8V63.3L48.71,80.82Zm23,.42a9,9,0,0,1-3.68-.72A5.87,5.87,0,0,1,60.32,75H63.4a3,3,0,0,0,1.2,2.6,5,5,0,0,0,3,.87,4.2,4.2,0,0,0,3.17-1.23,4.33,4.33,0,0,0,1.18-3.06q0-3.59-4.69-3.58H61.46l.91-10.13h11.7v2.78H64.82l.61-1-.64,6.64-.32-.3a12.88,12.88,0,0,1,1.77-.26c.68,0,1.27-.08,1.78-.08a8,8,0,0,1,5.14,1.51,5.2,5.2,0,0,1,1.92,4.38,7.15,7.15,0,0,1-.93,3.62,6.73,6.73,0,0,1-2.59,2.54A8.09,8.09,0,0,1,67.59,81.24Zm12.57-.42L93.92,60.44H97L83.28,80.82Zm14.24.34a4.25,4.25,0,0,1-2.07-.53,3.92,3.92,0,0,1-1.53-1.57,5.23,5.23,0,0,1-.6-2.62,5.14,5.14,0,0,1,.6-2.61,4,4,0,0,1,1.53-1.57,4.25,4.25,0,0,1,2.07-.53,4.3,4.3,0,0,1,2.09.53A3.84,3.84,0,0,1,98,73.83a5.14,5.14,0,0,1,.6,2.61,5.23,5.23,0,0,1-.6,2.62,3.78,3.78,0,0,1-1.55,1.57A4.3,4.3,0,0,1,94.4,81.16Zm0-2a1.64,1.64,0,0,0,1.34-.63,3.18,3.18,0,0,0,.53-2.06,3.23,3.23,0,0,0-.53-2,1.7,1.7,0,0,0-2.69,0,3.3,3.3,0,0,0-.51,2,3.26,3.26,0,0,0,.51,2.06A1.65,1.65,0,0,0,94.4,79.13ZM82.81,69.45a4.24,4.24,0,0,1-2.06-.53,4.08,4.08,0,0,1-1.54-1.57,5.3,5.3,0,0,1-.59-2.61,5.22,5.22,0,0,1,.59-2.59,4,4,0,0,1,1.54-1.55,4.24,4.24,0,0,1,2.06-.53,4.37,4.37,0,0,1,2.1.53,3.73,3.73,0,0,1,1.55,1.55,5.22,5.22,0,0,1,.59,2.59,5.3,5.3,0,0,1-.59,2.61,3.84,3.84,0,0,1-1.55,1.57A4.37,4.37,0,0,1,82.81,69.45Zm0-2a1.63,1.63,0,0,0,1.33-.64,3.27,3.27,0,0,0,.53-2.07,3.23,3.23,0,0,0-.53-2A1.62,1.62,0,0,0,82.81,62a1.63,1.63,0,0,0-1.34.65,3.3,3.3,0,0,0-.51,2,3.35,3.35,0,0,0,.51,2.07A1.65,1.65,0,0,0,82.81,67.45Zm-31.3,34.37V94.09A2.16,2.16,0,0,1,51.76,93a1.55,1.55,0,0,1,.69-.63,2.19,2.19,0,0,1,1-.2,3.86,3.86,0,0,1,.58,0,5.6,5.6,0,0,1,.59.12l-.21.87a2.21,2.21,0,0,0-.42-.12,1.74,1.74,0,0,0-.39,0,1.2,1.2,0,0,0-.45.09.73.73,0,0,0-.37.31,1.26,1.26,0,0,0-.15.67v7.71Zm-1.09-5.93v-.76H54v.76Zm10.08-.77h1.09v6.7H60.5Zm-4.75,0h1.09v4.17a1.79,1.79,0,0,0,.41,1.27,1.54,1.54,0,0,0,1.17.44,1.87,1.87,0,0,0,1.1-.34,2.15,2.15,0,0,0,.72-.92,3.44,3.44,0,0,0,.26-1.36h.4a5,5,0,0,1-.33,1.92,2.76,2.76,0,0,1-.91,1.23,2.36,2.36,0,0,1-1.39.42,3.05,3.05,0,0,1-1.32-.28,2,2,0,0,1-.88-.85,3,3,0,0,1-.32-1.45Zm8.67,6.7V92.27h1.09v9.55Zm3.93,0V92.27h1.09v9.55Zm4.28,0V94.09A2.06,2.06,0,0,1,72.89,93a1.53,1.53,0,0,1,.68-.63,2.19,2.19,0,0,1,1-.2,3.86,3.86,0,0,1,.58,0,5.6,5.6,0,0,1,.59.12l-.21.87a2.21,2.21,0,0,0-.42-.12,1.74,1.74,0,0,0-.39,0,1.2,1.2,0,0,0-.45.09.78.78,0,0,0-.37.31,1.36,1.36,0,0,0-.14.67v7.71Zm-1.09-5.93v-.76h3.57v.76Zm7.95,6.1a3.18,3.18,0,0,1-1.61-.4,2.8,2.8,0,0,1-1.1-1.18,4.77,4.77,0,0,1,0-3.87,2.8,2.8,0,0,1,1.1-1.18,3.28,3.28,0,0,1,1.61-.4,3.25,3.25,0,0,1,1.6.4,2.74,2.74,0,0,1,1.1,1.18,4.77,4.77,0,0,1,0,3.87,2.74,2.74,0,0,1-1.1,1.18A3.14,3.14,0,0,1,79.49,102Zm0-.95a2,2,0,0,0,1.11-.31,2,2,0,0,0,.69-.89,3.72,3.72,0,0,0,.23-1.36A3.19,3.19,0,0,0,81,96.59a1.72,1.72,0,0,0-1.48-.69,1.89,1.89,0,0,0-1.11.31,2,2,0,0,0-.69.89,3.8,3.8,0,0,0-.23,1.38,3.09,3.09,0,0,0,.5,1.87A1.69,1.69,0,0,0,79.46,101Zm-3.27.78,5.6-6.7h1l-5.62,6.7Zm8.54,0v-6.7h1.09v6.7Zm.75-3a7.46,7.46,0,0,1,.25-2.12,2.63,2.63,0,0,1,.71-1.26A1.69,1.69,0,0,1,87.6,95a2.46,2.46,0,0,1,.4,0,2.62,2.62,0,0,1,.38.09l-.07,1.08a3.83,3.83,0,0,0-.43-.11,2.17,2.17,0,0,0-.41,0,1.33,1.33,0,0,0-1,.35,1.94,1.94,0,0,0-.53.95,5.64,5.64,0,0,0-.16,1.45ZM91.84,102a2.24,2.24,0,0,1-1-.21,1.54,1.54,0,0,1-.68-.63,2,2,0,0,1-.26-1.05V93.27H91v6.8c0,.69.32,1,1,1a2,2,0,0,0,.55-.07,5,5,0,0,0,.61-.18l.15.78a4.61,4.61,0,0,1-.71.25A2.52,2.52,0,0,1,91.84,102Zm-3-6.1v-.76h4.27v.76Z"/><path class="cls-4" d="M7,72.38a6.82,6.82,0,0,0-7,7.15c.87,12.21,5,23.45,11.94,34A73.4,73.4,0,1,0,71.59.3a7.45,7.45,0,0,0-7,8.7c.61,4.43,4.71,7.47,9.18,7.49a57.08,57.08,0,1,1-48.22,88.23c-5-7.65-9.07-15.91-10.44-24.72C14.5,75.87,11.21,72.38,7,72.38Z"/></g></g></svg>