<svg width="51" height="48" viewBox="0 0 51 48" fill="none" xmlns="http://www.w3.org/2000/svg">
<path d="M25.5 0C20.5555 0 15.722 1.40758 11.6108 4.04473C7.49952 6.68188 4.29521 10.4302 2.40302 14.8156C0.510832 19.201 0.0157488 24.0266 0.980379 28.6822C1.94501 33.3377 4.32603 37.6141 7.82234 40.9706C11.3187 44.327 15.7732 46.6128 20.6228 47.5388C25.4723 48.4649 30.4989 47.9896 35.0671 46.1731C39.6352 44.3566 43.5397 41.2805 46.2867 37.3337C49.0338 33.3869 50.5 28.7467 50.5 24C50.5 17.6348 47.8661 11.5303 43.1777 7.02944C38.4893 2.52856 32.1304 0 25.5 0ZM25.5 10.2857C26.0298 10.2857 26.5477 10.4365 26.9881 10.7191C27.4286 11.0016 27.7719 11.4032 27.9747 11.8731C28.1774 12.343 28.2305 12.86 28.1271 13.3588C28.0238 13.8576 27.7686 14.3158 27.394 14.6754C27.0194 15.035 26.5422 15.2799 26.0226 15.3792C25.503 15.4784 24.9644 15.4275 24.475 15.2328C23.9855 15.0382 23.5672 14.7086 23.2729 14.2857C22.9785 13.8629 22.8214 13.3657 22.8214 12.8571C22.8214 12.1752 23.1036 11.5211 23.606 11.0389C24.1083 10.5566 24.7896 10.2857 25.5 10.2857ZM32.6429 37.9286H18.3572V34.0714H23.4911V24.2143H20.1429V20.3571H27.5089V34.0714H32.6429V37.9286Z" fill="black"/>
</svg>
