<svg width="51" height="48" viewBox="0 0 51 48" fill="none" xmlns="http://www.w3.org/2000/svg">
<path d="M25.5 0C20.5555 0 15.722 1.40757 11.6108 4.04473C7.49952 6.68188 4.29521 10.4302 2.40302 14.8156C0.510832 19.201 0.0157489 24.0266 0.980379 28.6822C1.94501 33.3377 4.32603 37.6141 7.82234 40.9706C11.3187 44.327 15.7732 46.6128 20.6227 47.5388C25.4723 48.4649 30.4989 47.9896 35.0671 46.1731C39.6352 44.3566 43.5397 41.2805 46.2867 37.3337C49.0338 33.3869 50.5 28.7467 50.5 24C50.5 17.6348 47.8661 11.5303 43.1777 7.02944C38.4893 2.52856 32.1304 0 25.5 0ZM41.8281 15.945L21.2969 35.64L9.17188 24C8.75748 23.6022 8.52468 23.0626 8.52468 22.5C8.52468 21.9374 8.75748 21.3978 9.17188 21C9.58629 20.6022 10.1483 20.3787 10.7344 20.3787C11.3204 20.3787 11.8825 20.6022 12.2969 21L21.3281 29.67L38.7344 12.975C38.9396 12.778 39.1832 12.6218 39.4513 12.5152C39.7194 12.4085 40.0067 12.3537 40.2969 12.3537C40.5871 12.3537 40.8744 12.4085 41.1425 12.5152C41.4106 12.6218 41.6542 12.778 41.8594 12.975C42.0646 13.172 42.2273 13.4058 42.3384 13.6632C42.4494 13.9206 42.5066 14.1964 42.5066 14.475C42.5066 14.7536 42.4494 15.0294 42.3384 15.2868C42.2273 15.5442 42.0646 15.778 41.8594 15.975L41.8281 15.945Z" fill="black"/>
</svg>
