<svg width="21" height="28" viewBox="0 0 21 28" fill="none" xmlns="http://www.w3.org/2000/svg">
<path d="M19.2 10.5459H16.5V6.9459C16.5 2.6004 14.4975 0.0458984 10.5 0.0458984C6.501 0.0458984 4.5 2.6004 4.5 6.9459V7.5459H7.5V6.3444C7.5 4.1769 8.6955 3.0459 10.5 3.0459C12.3045 3.0459 13.5 4.1769 13.5 6.3444V10.5459H1.5C0.6705 10.5459 0 11.5149 0 12.3444V24.0459C0 24.8694 0.642 25.7544 1.4265 26.0064L3.222 26.5869C4.17435 26.8645 5.15839 27.0188 6.15 27.0459H14.85C15.8413 27.019 16.8249 26.8642 17.7765 26.5854L19.5705 26.0049C20.3565 25.7544 21 24.8694 21 24.0459V12.3444C21 11.5149 20.028 10.5459 19.2 10.5459Z" fill="#5C5ECF"/>
</svg>
