<svg width="57" height="48" viewBox="0 0 57 48" fill="none" xmlns="http://www.w3.org/2000/svg">
<path d="M56.2297 45.0612L30.2312 0.979592C29.8437 0.32449 29.175 0 28.5 0C27.825 0 27.1501 0.32449 26.7688 0.979592L0.770319 45.0612C0.00161198 46.3714 0.964057 48 2.50147 48H54.4985C56.0359 48 56.9984 46.3714 56.2297 45.0612ZM26.5001 18.1224C26.5001 17.8531 26.7251 17.6327 27.0001 17.6327H29.9999C30.2749 17.6327 30.4999 17.8531 30.4999 18.1224V29.3878C30.4999 29.6571 30.2749 29.8776 29.9999 29.8776H27.0001C26.7251 29.8776 26.5001 29.6571 26.5001 29.3878V18.1224ZM28.5 39.6735C27.715 39.6578 26.9676 39.3413 26.4181 38.7918C25.8686 38.2424 25.5608 37.5039 25.5608 36.7347C25.5608 35.9655 25.8686 35.227 26.4181 34.6776C26.9676 34.1281 27.715 33.8116 28.5 33.7959C29.285 33.8116 30.0324 34.1281 30.5819 34.6776C31.1314 35.227 31.4392 35.9655 31.4392 36.7347C31.4392 37.5039 31.1314 38.2424 30.5819 38.7918C30.0324 39.3413 29.285 39.6578 28.5 39.6735Z" fill="black"/>
</svg>
